inDegrees=no
num_controls=7
num_derivatives=13
num_iterations=152
num_multipliers=7
num_parameters=0
num_slacks=7
num_states=26
objective=5.603831
objective_accelerations=0.639710
objective_balance=0.051117
objective_effort=0.515090
objective_height=4.377273
objective_ligament=0.020641
solver_duration=1775.474488
status=Solve_Succeeded
success=true
DataType=double
version=3
OpenSimVersion=4.4-2022-07-23-0e9fedc
endheader
time	/jointset/ground_pelvis/pelvis_tilt/value	/jointset/ground_pelvis/pelvis_tx/value	/jointset/ground_pelvis/pelvis_ty/value	/jointset/hip_l/hip_flexion_l/value	/jointset/hip_l/hip_adduction_l/value	/jointset/hip_l/hip_rotation_l/value	/jointset/back/lumbar_extension/value	/jointset/patellofemoral_l/patellar_flexion_l/value	/jointset/knee_l/knee_flexion_l/value	/jointset/knee_l/knee_adduction_l/value	/jointset/knee_l/knee_rotation_l/value	/jointset/ankle_l/ankle_angle_l/value	/jointset/subtalar_l/subtalar_angle_l/value	/jointset/ground_pelvis/pelvis_tilt/speed	/jointset/ground_pelvis/pelvis_tx/speed	/jointset/ground_pelvis/pelvis_ty/speed	/jointset/hip_l/hip_flexion_l/speed	/jointset/hip_l/hip_adduction_l/speed	/jointset/hip_l/hip_rotation_l/speed	/jointset/back/lumbar_extension/speed	/jointset/patellofemoral_l/patellar_flexion_l/speed	/jointset/knee_l/knee_flexion_l/speed	/jointset/knee_l/knee_adduction_l/speed	/jointset/knee_l/knee_rotation_l/speed	/jointset/ankle_l/ankle_angle_l/speed	/jointset/subtalar_l/subtalar_angle_l/speed	/forceset/tau_hip_flexion_l	/forceset/tau_hip_adduction_l	/forceset/tau_hip_rotation_l	/forceset/tau_knee_flexion_l	/forceset/tau_ankle_angle_l	/forceset/tau_subtalar_angle_l	/forceset/tau_lumbar_extension	lambda_cid13_p0	lambda_cid13_p1	lambda_cid13_p2	lambda_cid13_p3	lambda_cid13_p4	lambda_cid13_p5	lambda_cid14_p0	/jointset/ground_pelvis/pelvis_tilt/accel	/jointset/ground_pelvis/pelvis_tx/accel	/jointset/ground_pelvis/pelvis_ty/accel	/jointset/hip_l/hip_flexion_l/accel	/jointset/hip_l/hip_adduction_l/accel	/jointset/hip_l/hip_rotation_l/accel	/jointset/back/lumbar_extension/accel	/jointset/patellofemoral_l/patellar_flexion_l/accel	/jointset/knee_l/knee_flexion_l/accel	/jointset/knee_l/knee_adduction_l/accel	/jointset/knee_l/knee_rotation_l/accel	/jointset/ankle_l/ankle_angle_l/accel	/jointset/subtalar_l/subtalar_angle_l/accel	gamma_cid13_p0	gamma_cid13_p1	gamma_cid13_p2	gamma_cid13_p3	gamma_cid13_p4	gamma_cid13_p5	gamma_cid14_p0
0	-0.1569174548049359	0.05736548552370442	0.8978911318915886	0.3774920279260975	-0.2606777952201951	-0.2464168326649271	-0.0126506700172305	0.03223623128435323	0.03223623128433527	-0.1745328281240582	0.1491914168769658	-0.04231376238535053	-0.01111208889063074	0	0	0	0	0	0	0	0	0	0	0	0	0	0.1395027359358487	-0.05803507917466021	-0.04123713748939924	-0.2635546345795047	0.2247727696607855	-0.0345220010165856	-0.09158992850202355	29.98077040394571	4.280335402270709	5.155414251480579	26.09005452694253	-587.3490032461732	-66.05651484759986	-38.30314858823822	-5.008649122859026	-2.892057186240278	-1.225761525809963	13.78224518791102	-1.026001904318218	2.437601512913828	-6.128074192682391	8.296229977458385	8.29622997745958	0.07716518396029827	0.3485393588161059	-0.4557921203184702	-1.156006740751641	3.903854618067063e-10	9.625935251808419e-08	2.810675972068925e-08	-1.47425544274804e-08	1.257267628078138e-07	6.140952041166316e-08	-2.876344837495973e-09
0.01	-0.157160220979992	0.05722295395441059	0.8978311431911402	0.3781647948977722	-0.2607294544353205	-0.2462955350722644	-0.01295818298080827	0.0326416760089058	0.0326416760089188	-0.1745317865977893	0.149206462131368	-0.04233772443212411	-0.01117049111042434	-0.04832487825311987	-0.02833961730967927	-0.01195336127507905	0.133899804211828	-0.0102962917402513	0.02415514316443899	-0.06107395448826678	0.08074166211940795	0.0807416621194082	0.0001791124953793634	0.00299852904610847	-0.00471652572201515	-0.0116260875462605	0.134915374994592	-0.06564260889272232	-0.0406057825520741	-0.2603628448701676	0.2210340254135691	-0.02493713469686673	-0.08742472084302057	29.15264187798076	0.4774238355477344	5.516352158837286	25.08233137264483	-588.4168010165984	-73.44089470295444	-38.3152938142737	-4.710159348100547	-2.779912469315974	-1.17344146122438	13.09580623288471	-1.026122422840899	2.388812456590744	-6.032760341477615	7.911042485736959	7.911042485736425	-0.01607951447520037	0.2739307197299007	-0.4681988243913743	-1.157774869253058	-2.0801483151026e-08	9.864257525374501e-08	7.119676202367087e-08	1.944907481708465e-09	-9.525213654930407e-09	5.662494798494625e-08	-1.017508653869476e-08
0.02	-0.1578793863719424	0.05680202651882273	0.8976529572713638	0.3801569515505865	-0.2608830124906408	-0.2459358177002962	-0.01386357634219763	0.03384411898598279	0.03384411898598005	-0.1745298267038516	0.1492511768846466	-0.04240657494136898	-0.01134352722721909	-0.09527984336854399	-0.05567917325880525	-0.02363944386558785	0.2638779362263031	-0.02037976803904941	0.04768395586413556	-0.1195760795596136	0.1593996505010036	0.1593996505009977	0.0001836731186093071	0.005933899781103756	-0.008977692493978947	-0.02292677940014978	0.1303280140536056	-0.07325013861069139	-0.03997442761495748	-0.2571710551607893	0.2172952811663553	-0.01535226837705376	-0.08325951318377996	28.39724362653378	-3.338541819373058	5.879737982805102	24.03113591197528	-588.3149914113048	-80.742619443016	-38.35113793909882	-4.734666495319718	-2.692044914129563	-1.172305788896068	12.99791074843989	-0.9834388160296381	2.312335419965312	-5.613708309297938	7.879495229896022	7.879495229895921	0.04225480952637695	0.3359076965937319	-0.3647203303086349	-1.09092760227951	-4.199335176385872e-08	1.010257979894058e-07	1.142867643266525e-07	1.863236939089733e-08	-1.447771901176746e-07	5.184037555822934e-08	-1.747382823989355e-08
0.03	-0.1590614467875191	0.05611236670417601	0.8973589641438967	0.3834301074821878	-0.2611359478109105	-0.2453439756436256	-0.01534087182159609	0.03582280717945967	0.03582280717945867	-0.1745280958438418	0.14932490794066	-0.0425161505483303	-0.01162765148086395	-0.1408821179513863	-0.08211708741998594	-0.03513673206993061	0.3901200187191258	-0.03014648220543889	0.07057672584637424	-0.175470123814231	0.2359799087222906	0.2359799087222904	0.0001630239021527353	0.008795435591473126	-0.01290587663955861	-0.03382952561867684	0.1236873296386986	-0.06858854750812239	-0.03903841321950691	-0.2512301163685109	0.2120076657196093	-0.01677316084968406	-0.07780032949730799	26.70766581553991	-2.538490265734062	5.881117471881794	24.14256275296366	-587.9095173589625	-78.22416832511115	-38.40956110759235	-4.435494822954232	-2.599305536075998	-1.135102404494091	12.342364297196	-0.9641783839228257	2.261571079586551	-5.515318606497901	7.493582721970672	7.493582721971721	-0.02412308740319905	0.258729091405865	-0.4021347913844849	-1.07969509124509	-5.44225474344856e-08	1.131937290427623e-07	1.317510878907151e-07	3.011941083530754e-08	-2.323876448726646e-07	6.076460875967924e-08	-2.007129920889193e-08
0.04	-0.1606920273255965	0.05516239957412399	0.8969506657207261	0.3879466856981735	-0.2614847284062377	-0.2445264412286779	-0.0173647209681474	0.03855655627589232	0.0385565562758909	-0.1745265511358076	0.1494267448683997	-0.04266406146368761	-0.01201875258861556	-0.1849838678616172	-0.1077406363398675	-0.04650050300627323	0.5125623931116434	-0.03954882305100958	0.09282242751793778	-0.2288868129869525	0.3104118310926032	0.3104118310926096	0.0001464426788019817	0.01155507412774926	-0.01664475417321518	-0.04432215022145065	0.1170466452235886	-0.06392695640554785	-0.03810239882416445	-0.2452891775763151	0.2067200502728388	-0.01819405332231302	-0.07234114581098389	25.08371427721866	-1.7494441138807	5.883698553907682	24.208995752227	-586.4600609660019	-75.62647610952317	-38.48933178188987	-4.434561560797055	-2.529171865869896	-1.145602335296068	12.23796912837869	-0.9105641518663352	2.182921757830241	-5.118237292918377	7.449828059701237	7.449828059701268	0.0430684081466688	0.315528241775191	-0.3268590079242798	-1.008903279129361	-6.667106943620102e-08	1.255634066593702e-07	1.486870469446969e-07	4.149922711549551e-08	-3.190158002109999e-07	6.997149774727693e-08	-2.257183676073155e-08
